<svg xmlns="http://www.w3.org/2000/svg" viewBox="0 0 64 64" width="500px" height="500px">
  <linearGradient id="EXOsRnDX~Iy1c0WwVDvpNa" x1="11" x2="11" y1="27.723" y2="47.726" gradientUnits="userSpaceOnUse">
    <stop offset="0" stop-color="#6dc7ff" />
    <stop offset="1" stop-color="#e6abff" />
  </linearGradient>
  <path fill="url(#EXOsRnDX~Iy1c0WwVDvpNa)" d="M8,29h6v19H8V29z" />
  <linearGradient id="EXOsRnDX~Iy1c0WwVDvpNb" x1="32" x2="32" y1="8.362" y2="54.66" gradientUnits="userSpaceOnUse">
    <stop offset="0" stop-color="#1a6dff" />
    <stop offset="1" stop-color="#c822ff" />
  </linearGradient>
  <path fill="url(#EXOsRnDX~Iy1c0WwVDvpNb)" d="M56.427,36.815c-0.937-0.693-2.188-0.895-3.435-0.55l-15.289,4.227 C37.891,40.028,38,39.523,38,38.991C38,36.79,36.206,35,34,35h-9.377c-0.666-1-2.362-4-4.623-4h-4v-1c0-1.654-1.346-3-3-3H9 c-1.654,0-3,1.346-3,3v17c0,1.654,1.346,3,3,3h4c1.654,0,3-1.345,3-3v-0.752l12.139,8.202c1.524,1.032,3.298,1.55,5.075,1.55 c1.642,0,3.287-0.442,4.742-1.331l18.173-11.101C57.283,42.865,58,41.587,58,40.235v-0.313C58,38.691,57.427,37.559,56.427,36.815z M14,47c0,0.552-0.449,1-1,1h-1v-4h-2v4H9c-0.551,0-1-0.448-1-1V30c0-0.552,0.449-1,1-1h4c0.551,0,1,0.449,1,1V47z M56,40.235 c0,0.66-0.35,1.283-0.913,1.627l-18.173,11.1c-2.365,1.443-5.369,1.378-7.654-0.169L16,43.835V33h4 c1.059,0,2.469,2.034,3.088,3.409L23.354,37H34c1.103,0,2,0.893,2,1.99c0,1.108-0.897,2.01-2,2.01H24v2h10h2l17.524-4.807 c0.641-0.178,1.28-0.093,1.71,0.229C55.721,38.783,56,39.33,56,39.922V40.235z" />
  <linearGradient id="EXOsRnDX~Iy1c0WwVDvpNc" x1="37" x2="37" y1="8.362" y2="54.66" gradientUnits="userSpaceOnUse">
    <stop offset="0" stop-color="#1a6dff" />
    <stop offset="1" stop-color="#c822ff" />
  </linearGradient>
  <path fill="url(#EXOsRnDX~Iy1c0WwVDvpNc)" d="M28,26h18c4.962,0,9-4.038,9-9s-4.038-9-9-9H28c-4.962,0-9,4.038-9,9S23.038,26,28,26z M40,24c-1.103,0-2-0.897-2-2s0.897-2,2-2s2,0.897,2,2S41.103,24,40,24z M51,21c-0.551,0-1-0.449-1-1s0.449-1,1-1s1,0.449,1,1 S51.551,21,51,21z M46,11c0,0.551-0.449,1-1,1s-1-0.449-1-1s0.449-1,1-1S46,10.449,46,11z M42.184,10 C42.072,10.314,42,10.648,42,11c0,1.654,1.346,3,3,3s3-1.346,3-3c0-0.254-0.041-0.496-0.101-0.731C50.838,11.099,53,13.799,53,17 c0,0.252-0.015,0.501-0.041,0.746C52.432,17.288,51.752,17,51,17c-1.654,0-3,1.346-3,3c0,1.274,0.802,2.358,1.925,2.792 C48.805,23.554,47.454,24,46,24h-2.556C43.788,23.409,44,22.732,44,22c0-2.206-1.794-4-4-4c-0.732,0-1.409,0.212-2,0.556V10H42.184 z M28,10h8v14h-8c-3.86,0-7-3.14-7-7S24.14,10,28,10z" />
  <g>
    <linearGradient id="EXOsRnDX~Iy1c0WwVDvpNd" x1="25.515" x2="25.515" y1="17.021" y2="21.298" gradientUnits="userSpaceOnUse">
      <stop offset="0" stop-color="#6dc7ff" />
      <stop offset="1" stop-color="#e6abff" />
    </linearGradient>
    <path fill="url(#EXOsRnDX~Iy1c0WwVDvpNd)" d="M27.5,17h-3.97c-0.306,0-0.532,0.272-0.497,0.577c0.265,2.297,2.093,4.125,4.39,4.39 C27.728,22.002,28,21.776,28,21.47V17.5C28,17.224,27.776,17,27.5,17z" />
  </g>
</svg>